# xmcd
#
# Track frame offsets: 
#        150
#        16445
#        33545
#        53907
#        74571
#        78766
#        91508
#        105891
#        123188
#        135574
#        153450
#        166689
#        183975
#        194167
#        206773
#        223242
#        241005
#        258222
#
# Disc length: 3783 seconds
#
# Revision: 0
# Processed by: cddbd v1.5.2PL0 Copyright (c) Steve Scherf et al.
# Submitted via: ExactAudioCopy v0.95b4
#
DISCID=ed0ec512
DTITLE=Various Artist - Polskie country .3
DYEAR=2007
DGENRE=Country
TTITLE0=Johnny Walker \\ Wczorajsze dni
TTITLE1=Zayazd \\ Ty moje szczescie
TTITLE2=Kult \\ Nocny express
TTITLE3=Pawel Baczkowski \\ Chcialbym wrocic choc na chwile
TTITLE4=Harvest Time \\ Czas zniw
TTITLE5=Michal Lonstar \\ Dla kierowcow ze stu tysiecy szos
TTITLE6=Krzysztof Gablonski and Full Service \\ Cicho powiedziane
TTITLE7=Magda Aniol \\ Dominika
TTITLE8=Colorado Band \\ Tak jak dobry film
TTITLE9=Cezary Makiewicz and Koltersi \\ Tomek spiewaj
TTITLE10=Parkway \\ Highway 40 Blues
TTITLE11=T-Band \\ Down at the Twist and Shout
TTITLE12=Fair Play \\ Idz sobie idz
TTITLE13=Coach \\ Jak to w zyciu
TTITLE14=Tomasz Szwed \\ Siedze na ganku
TTITLE15=Mariusz Kalaga \\ Umowmy sie ze potrafimy kochac
TTITLE16=Pawel Baczkowski \\ Wiem ze kocham cie
TTITLE17=Michal Lonstar \\ Tym co nie zasneli
EXTD=
EXTT0=
EXTT1=
EXTT2=
EXTT3=
EXTT4=
EXTT5=
EXTT6=
EXTT7=
EXTT8=
EXTT9=
EXTT10=
EXTT11=
EXTT12=
EXTT13=
EXTT14=
EXTT15=
EXTT16=
EXTT17=
PLAYORDER=
